<?xml version="1.0" standalone="no"?>
<!DOCTYPE svg PUBLIC "-//W3C//DTD SVG 20010904//EN"
 "http://www.w3.org/TR/2001/REC-SVG-20010904/DTD/svg10.dtd">
<svg version="1.0" xmlns="http://www.w3.org/2000/svg"
 width="700.000000pt" height="700.000000pt" viewBox="0 0 700.000000 700.000000"
 preserveAspectRatio="xMidYMid meet">
<metadata>
Created by potrace 1.14, written by Peter Selinger 2001-2017
</metadata>
<g transform="translate(0.000000,700.000000) scale(0.100000,-0.100000)"
fill="#000000" stroke="none">
<path d="M2303 5793 c-656 -378 -1190 -690 -1185 -695 11 -11 1502 -868 1511
-868 4 0 398 225 876 499 l868 500 41 -24 c23 -13 72 -41 109 -63 l68 -39
-865 -498 c-477 -273 -866 -501 -866 -505 0 -8 626 -370 641 -370 11 0 2357
1347 2377 1365 10 9 -152 106 -747 448 l-759 437 -851 -490 c-468 -269 -860
-494 -871 -500 -18 -9 -37 -2 -125 47 -58 32 -105 61 -105 64 0 4 386 229 858
500 471 271 861 495 865 499 7 6 -590 358 -634 375 -8 3 -551 -304 -1206 -682z"/>
<path d="M862 3299 l3 -1392 430 -248 c237 -137 433 -249 437 -249 4 0 9 168
10 374 l3 375 325 -188 325 -187 5 -382 5 -382 433 -250 c239 -138 436 -250
438 -250 2 0 4 625 4 1388 l0 1388 -1187 685 c-652 376 -1197 690 -1210 697
l-23 13 2 -1392z m1217 -69 l321 -185 0 -253 0 -253 -27 16 c-16 9 -163 94
-328 189 l-300 172 -3 253 c-1 152 1 251 7 249 5 -1 154 -86 330 -188z"/>
<path d="M4928 3992 l-1208 -696 0 -1388 c0 -763 2 -1388 5 -1388 2 0 200 113
440 251 l435 251 2 381 3 381 325 187 325 187 3 -374 c1 -206 5 -374 9 -374 9
0 845 480 861 494 9 9 12 297 10 1398 l-3 1386 -1207 -696z m330 -824 l-3
-252 -300 -173 c-165 -96 -312 -180 -327 -189 l-28 -15 0 253 0 253 323 187
c177 102 325 187 330 187 4 1 6 -112 5 -251z"/>
</g>
</svg>
